<?xml version="1.0" encoding="utf-8"?>
<!-- Generator: Adobe Illustrator 26.2.1, SVG Export Plug-In . SVG Version: 6.00 Build 0)  -->
<svg version="1.1" id="Layer_1" xmlns="http://www.w3.org/2000/svg" xmlns:xlink="http://www.w3.org/1999/xlink" x="0px" y="0px"
	 viewBox="0 0 64 64" style="enable-background:new 0 0 64 64;" xml:space="preserve">
<style type="text/css">
	.st0{fill:#0FB9ED;}
</style>
<g>
	<path class="st0" d="M63.6,11.7L52.3,0.4C52,0.1,51.7,0,51.4,0H14.2c-2.1,0-3.8,1.7-3.8,3.8v2.4C4.4,8.5,0,14.5,0,21.5
		c0,0.7,0.6,1.2,1.2,1.2h15.3c0.7,0,1.2-0.6,1.2-1.2V6.2c0-0.7-0.6-1.2-1.2-1.2c-1.2,0-2.4,0.1-3.5,0.4V3.8c0-0.7,0.6-1.2,1.2-1.2
		h35.9v7.6c0,2.1,1.7,3.8,3.8,3.8h7.6v46.4c0,0.7-0.6,1.2-1.2,1.2h-46c-0.7,0-1.2-0.6-1.2-1.2V49.5c0-0.7-0.6-1.2-1.2-1.2
		s-1.2,0.6-1.2,1.2v10.7c0,2.1,1.7,3.8,3.8,3.8h46c2.1,0,3.8-1.7,3.8-3.8V12.6C64,12.3,63.9,12,63.6,11.7z M15.3,7.6v12.7H2.6
		C3.2,13.5,8.5,8.2,15.3,7.6z M53.9,11.4c-0.7,0-1.2-0.6-1.2-1.2V4.3l7.1,7.1H53.9z"/>
	<path class="st0" d="M12.6,44.1c-0.2-0.2-0.6-0.4-0.9-0.4s-0.7,0.1-0.9,0.4c-0.2,0.2-0.4,0.6-0.4,0.9s0.1,0.7,0.4,0.9
		c0.2,0.2,0.6,0.4,0.9,0.4s0.7-0.1,0.9-0.4c0.2-0.2,0.4-0.6,0.4-0.9S12.9,44.3,12.6,44.1z"/>
	<path class="st0" d="M21,9.5c-0.7,0-1.2,0.6-1.2,1.2v14h-14c-0.7,0-1.2,0.6-1.2,1.2c0,9.1,7.4,16.5,16.5,16.5
		c9.1,0,16.5-7.4,16.5-16.5S30.1,9.5,21,9.5z M22.2,12c2.9,0.3,5.6,1.4,7.7,3.2L22.2,23V12z M21,40c-7.3,0-13.3-5.6-14-12.8h14
		c0.3,0,0.7-0.1,0.9-0.4c0,0,0,0,0,0l9.9-9.9c2,2.4,3.3,5.6,3.3,9C35,33.7,28.7,40,21,40z"/>
	<path class="st0" d="M54.8,39.5c-2.1,0-3.8,1.7-3.8,3.8c0,0.5,0.1,1,0.3,1.5l-7.2,7.2c-0.5-0.2-1.1-0.4-1.6-0.4
		c-0.6,0-1.1,0.1-1.6,0.4l-4.8-4.8c0.2-0.4,0.3-0.9,0.3-1.4c0-2.1-1.7-3.8-3.8-3.8c-2.1,0-3.8,1.7-3.8,3.8c0,0.6,0.1,1.1,0.3,1.6
		l-4.6,4.6c-0.5-0.2-1-0.4-1.6-0.4c-2.1,0-3.8,1.7-3.8,3.8c0,2.1,1.7,3.8,3.8,3.8c2.1,0,3.8-1.7,3.8-3.8c0-0.6-0.1-1.1-0.4-1.6
		l4.6-4.6c0.5,0.2,1.1,0.4,1.7,0.4c0.7,0,1.3-0.2,1.9-0.5l4.6,4.6c-0.2,0.5-0.4,1-0.4,1.6c0,2.1,1.7,3.8,3.8,3.8
		c2.1,0,3.8-1.7,3.8-3.8c0-0.6-0.1-1.1-0.4-1.6l7.1-7.1c0.5,0.3,1.1,0.4,1.8,0.4c2.1,0,3.8-1.7,3.8-3.8
		C58.5,41.1,56.8,39.5,54.8,39.5z M23,56.5c-0.7,0-1.2-0.6-1.2-1.2c0-0.7,0.6-1.2,1.2-1.2c0.3,0,0.6,0.1,0.9,0.3c0,0,0,0,0,0
		c0,0,0,0,0,0c0.2,0.2,0.4,0.5,0.4,0.9C24.2,55.9,23.7,56.5,23,56.5z M32.6,47c-0.7,0-1.2-0.6-1.2-1.2s0.6-1.2,1.2-1.2
		c0.7,0,1.2,0.6,1.2,1.2S33.3,47,32.6,47z M42.5,56.5c-0.7,0-1.2-0.6-1.2-1.2c0-0.7,0.6-1.2,1.2-1.2c0.7,0,1.2,0.6,1.2,1.2
		C43.7,55.9,43.2,56.5,42.5,56.5z M54.8,44.5c-0.7,0-1.2-0.6-1.2-1.2s0.6-1.2,1.2-1.2c0.7,0,1.2,0.6,1.2,1.2S55.4,44.5,54.8,44.5z"
		/>
	<path class="st0" d="M48.5,29.4h-6.6c-0.7,0-1.2,0.6-1.2,1.2s0.6,1.2,1.2,1.2h6.6c0.7,0,1.2-0.6,1.2-1.2S49.2,29.4,48.5,29.4z"/>
	<path class="st0" d="M55.1,29.7c-0.2-0.2-0.6-0.4-0.9-0.4c-0.3,0-0.7,0.1-0.9,0.4C53.1,30,53,30.3,53,30.6s0.1,0.7,0.4,0.9
		c0.2,0.2,0.6,0.4,0.9,0.4c0.3,0,0.7-0.1,0.9-0.4c0.2-0.2,0.4-0.6,0.4-0.9S55.3,30,55.1,29.7z"/>
	<path class="st0" d="M57.2,17.4H41.9c-0.7,0-1.2,0.6-1.2,1.2s0.6,1.2,1.2,1.2h15.3c0.7,0,1.2-0.6,1.2-1.2S57.9,17.4,57.2,17.4z"/>
	<path class="st0" d="M57.2,23.4H41.9c-0.7,0-1.2,0.6-1.2,1.2s0.6,1.2,1.2,1.2h15.3c0.7,0,1.2-0.6,1.2-1.2S57.9,23.4,57.2,23.4z"/>
</g>
</svg>
