<?xml version="1.0" encoding="utf-8"?>
<!-- Generator: Adobe Illustrator 26.2.1, SVG Export Plug-In . SVG Version: 6.00 Build 0)  -->
<svg version="1.1" id="Layer_1" xmlns="http://www.w3.org/2000/svg" xmlns:xlink="http://www.w3.org/1999/xlink" x="0px" y="0px"
	 viewBox="0 0 48 48" style="enable-background:new 0 0 48 48;" xml:space="preserve">
<style type="text/css">
	.st0{fill:#0FB9ED;}
</style>
<g>
	<path class="st0" d="M34.3,12.8h-6.1c-0.5,0-0.9,0.4-0.9,0.9s0.4,0.9,0.9,0.9h5.1v18.8H14.6V14.6h5.2c0.5,0,0.9-0.4,0.9-0.9
		s-0.4-0.9-0.9-0.9h-6.1c-0.5,0-0.9,0.4-0.9,0.9v20.6c0,0.5,0.4,0.9,0.9,0.9h20.6c0.5,0,0.9-0.4,0.9-0.9V13.7
		C35.2,13.2,34.8,12.8,34.3,12.8z"/>
	<path class="st0" d="M16.9,17.8v4.1c0,0.5,0.4,0.9,0.9,0.9h4.1c0.5,0,0.9-0.4,0.9-0.9v-4.1c0-0.5-0.4-0.9-0.9-0.9h-4.1
		C17.3,16.9,16.9,17.3,16.9,17.8z M18.8,18.8H21V21h-2.2V18.8z"/>
	<path class="st0" d="M26.1,18.8h4.1c0.5,0,0.9-0.4,0.9-0.9s-0.4-0.9-0.9-0.9h-4.1c-0.5,0-0.9,0.4-0.9,0.9S25.5,18.8,26.1,18.8z"/>
	<path class="st0" d="M26.1,22.9h4.1c0.5,0,0.9-0.4,0.9-0.9S30.7,21,30.2,21h-4.1c-0.5,0-0.9,0.4-0.9,0.9S25.5,22.9,26.1,22.9z"/>
	<path class="st0" d="M26.1,31.1h4.1c0.5,0,0.9-0.4,0.9-0.9v-4.1c0-0.5-0.4-0.9-0.9-0.9s-0.9,0.4-0.9,0.9v3.2h-3.2
		c-0.5,0-0.9,0.4-0.9,0.9S25.5,31.1,26.1,31.1z"/>
	<path class="st0" d="M26.1,27c0.2,0,0.5-0.1,0.7-0.3c0.2-0.2,0.3-0.4,0.3-0.7s-0.1-0.5-0.3-0.7c-0.2-0.2-0.4-0.3-0.7-0.3
		s-0.5,0.1-0.7,0.3s-0.3,0.4-0.3,0.7s0.1,0.5,0.3,0.7C25.6,26.9,25.8,27,26.1,27z"/>
	<path class="st0" d="M21.9,29.2h-4.1c-0.5,0-0.9,0.4-0.9,0.9s0.4,0.9,0.9,0.9h4.1c0.5,0,0.9-0.4,0.9-0.9S22.5,29.2,21.9,29.2z"/>
	<path class="st0" d="M21.9,25.1h-4.1c-0.5,0-0.9,0.4-0.9,0.9s0.4,0.9,0.9,0.9h4.1c0.5,0,0.9-0.4,0.9-0.9S22.5,25.1,21.9,25.1z"/>
	<path class="st0" d="M47.1,24.9c0.5,0,0.9-0.4,0.9-0.9c0-0.5-0.4-0.9-0.9-0.9h-7.3v-3.4h3.6c0.5,0,0.9-0.4,0.9-0.9
		s-0.4-0.9-0.9-0.9h-3.6v-3.4h7.3c0.5,0,0.9-0.4,0.9-0.9s-0.4-0.9-0.9-0.9h-7.4c-0.3-2.2-2.1-3.9-4.3-4.3V0.9C35.4,0.4,35,0,34.5,0
		s-0.9,0.4-0.9,0.9v7.3h-3.4V4.7c0-0.5-0.4-0.9-0.9-0.9s-0.9,0.4-0.9,0.9v3.6h-3.4V0.9C24.9,0.4,24.5,0,24,0s-0.9,0.4-0.9,0.9v7.3
		h-3.4V4.7c0-0.5-0.4-0.9-0.9-0.9s-0.9,0.4-0.9,0.9v3.6h-3.4V0.9C14.4,0.4,14,0,13.5,0s-0.9,0.4-0.9,0.9v7.4
		c-2.2,0.3-3.9,2.1-4.3,4.3H0.9C0.4,12.6,0,13,0,13.5s0.4,0.9,0.9,0.9h7.3v3.4H4.7c-0.5,0-0.9,0.4-0.9,0.9s0.4,0.9,0.9,0.9h3.6v3.4
		H0.9C0.4,23.1,0,23.5,0,24c0,0.5,0.4,0.9,0.9,0.9h7.3v3.4H4.7c-0.5,0-0.9,0.4-0.9,0.9s0.4,0.9,0.9,0.9h3.6v3.4H0.9
		C0.4,33.6,0,34,0,34.5s0.4,0.9,0.9,0.9h7.4c0.3,2.2,2.1,3.9,4.3,4.3v7.4c0,0.5,0.4,0.9,0.9,0.9s0.9-0.4,0.9-0.9v-7.3h3.4v3.6
		c0,0.5,0.4,0.9,0.9,0.9s0.9-0.4,0.9-0.9v-3.6h3.4v7.3c0,0.5,0.4,0.9,0.9,0.9s0.9-0.4,0.9-0.9v-7.3h3.4v3.6c0,0.5,0.4,0.9,0.9,0.9
		s0.9-0.4,0.9-0.9v-3.6h3.4v7.3c0,0.5,0.4,0.9,0.9,0.9s0.9-0.4,0.9-0.9v-7.4c2.2-0.3,3.9-2.1,4.3-4.3h7.4c0.5,0,0.9-0.4,0.9-0.9
		s-0.4-0.9-0.9-0.9h-7.3v-3.4h3.6c0.5,0,0.9-0.4,0.9-0.9s-0.4-0.9-0.9-0.9h-3.6v-3.4H47.1z M37.9,34.7c0,1.8-1.4,3.2-3.2,3.2H13.3
		c-1.8,0-3.2-1.4-3.2-3.2V13.3c0-1.8,1.4-3.2,3.2-3.2h21.4c1.8,0,3.2,1.4,3.2,3.2V34.7z"/>
	<path class="st0" d="M24,14.6c0.2,0,0.5-0.1,0.7-0.3c0.2-0.2,0.3-0.4,0.3-0.7s-0.1-0.5-0.3-0.7s-0.4-0.3-0.7-0.3
		c-0.2,0-0.5,0.1-0.7,0.3c-0.2,0.2-0.3,0.4-0.3,0.7s0.1,0.5,0.3,0.7C23.5,14.5,23.8,14.6,24,14.6z"/>
</g>
</svg>
