<?xml version="1.0" encoding="utf-8"?>
<!-- Generator: Adobe Illustrator 26.2.1, SVG Export Plug-In . SVG Version: 6.00 Build 0)  -->
<svg version="1.1" id="Layer_1" xmlns="http://www.w3.org/2000/svg" xmlns:xlink="http://www.w3.org/1999/xlink" x="0px" y="0px"
	 viewBox="0 0 48 48" style="enable-background:new 0 0 48 48;" xml:space="preserve">
<style type="text/css">
	.st0{clip-path:url(#SVGID_00000142154893224255589990000003434854362610126012_);}
	.st1{fill:#0FB9ED;}
</style>
<g>
	<defs>
		<rect id="SVGID_1_" width="48" height="48"/>
	</defs>
	<clipPath id="SVGID_00000091007292463574843360000008665235942771037062_">
		<use xlink:href="#SVGID_1_"  style="overflow:visible;"/>
	</clipPath>
	<g style="clip-path:url(#SVGID_00000091007292463574843360000008665235942771037062_);">
		<path class="st1" d="M41.4,35.2c0.3-1.3,0.2-2.7,0-4.1l3.7-8.8c0,0,0,0,0,0c0.6-1.6,1.5-3.1,2.6-4.5c0.3-0.3,0.4-0.7,0.3-1.1
			l-1.5-6.5c0-0.1,0-0.1-0.1-0.2c0,0,0,0,0,0s0,0-0.1-0.1c0,0-0.1-0.1-0.1-0.1c0,0-0.1,0-0.1-0.1c0,0-0.1-0.1-0.1-0.1
			c-0.1,0-0.1,0-0.2,0c0,0,0,0-0.1,0c-0.2,0-0.3,0-0.4,0.1c0,0,0,0,0,0h0l-5.6,3.5c-0.3,0.2-0.6,0.6-0.6,1c-0.2,1.7-0.6,3.4-1.3,5v0
			l-1.8,4.4c-0.9-0.5-1.9-0.8-2.9-1c0.4-2.6,0.5-5.2,0.4-7.9c1.5-1.8,2.2-4.1,2-6.4c-0.5-4.7-4.7-8-4.9-8.2c-0.3-0.2-0.6-0.2-0.9,0
			c-0.3,0.2-0.4,0.5-0.3,0.9c0.4,1.5,0.1,3.2-3,6.5c-1.4,1.3-1.8,3.3-1.1,5.1c0.3,0.7,0.7,1.3,1.1,1.8c-0.2,1.2-0.3,2.4-0.5,3.5
			c-0.2,1.9-0.2,3.8-0.1,5.7c-0.7,0.4-1.4,0.9-2,1.4L19.8,8.5c0,0,0,0,0,0c0-0.1,0-0.1-0.1-0.2l-4-7.3c-0.4-0.7-1.2-1.1-2-0.9
			S12.3,1,12.3,1.8L12,10.1c0,0.1,0,0.1,0,0.2v0l4,16.9c-0.6,0-1.2,0.1-1.8,0.3L9.8,17c-0.3-0.8-1.3-1.2-2.1-0.9L1,18.9
			c-0.8,0.3-1.2,1.3-0.9,2.1l5.9,14.2c-3.5,0.2-6.1,3.1-6.1,6.6C0.1,45.2,2.9,48,6.4,48h35.2c2.3,0,4.4-1.3,5.5-3.3
			c1.1-2,1.1-4.4-0.1-6.4C45.8,36.4,43.7,35.2,41.4,35.2z M40.6,14.5l3.4-2.1l-1.2,2.9c-0.2,0.4,0,0.9,0.4,1c0.4,0.2,0.9,0,1-0.4
			l1.2-2.9l0.9,3.9c-1,1.2-1.7,2.4-2.3,3.8c-0.8,0.4-1.8,0.4-2.6,0.1c-0.8-0.4-1.5-1-1.8-1.9C40.1,17.5,40.5,16,40.6,14.5z
			 M38.8,20.8c0.5,0.6,1.2,1.1,2,1.5c0.6,0.3,1.3,0.4,2,0.4c0.2,0,0.3,0,0.5,0l-2.6,6.2c-0.8-1.7-1.9-3.1-3.4-4.2L38.8,20.8z
			 M27.8,15.1l4,0.2c0,0.7,0,1.5,0,2.3c-1.3,0.1-2.7,0-4-0.2c-0.1,0-0.2,0-0.3,0C27.6,16.6,27.7,15.9,27.8,15.1L27.8,15.1z
			 M27.4,8.6c2.1-2.3,3.2-4.1,3.5-5.8c1.5,1.6,2.5,3.6,2.9,5.7c0.2,1.9-0.4,3.8-1.6,5.2c-1.6-0.1-3.1-0.2-4.7-0.3
			c-0.7-0.6-1-1.5-1.1-2.4C26.4,10.1,26.8,9.3,27.4,8.6L27.4,8.6z M27.4,19l0.2,0c1,0.2,2.1,0.2,3.1,0.3c0.3,0,0.7,0,1-0.1
			c-0.1,1-0.2,2.1-0.3,3.2c-0.2,0-0.4,0-0.6,0c-1.2,0-2.4,0.2-3.5,0.6C27.2,21.7,27.3,20.3,27.4,19L27.4,19z M21.2,28.3l-2.3-9.7
			c-0.1-0.4-0.5-0.7-1-0.6s-0.7,0.5-0.6,0.9l2.1,8.8c-0.6-0.2-1.1-0.3-1.7-0.4l-3.5-15c0.5,0.2,1,0.3,1.6,0.3c0.1,0,0.1,0,0.2,0
			l0.6,2.4c0.1,0.3,0.3,0.5,0.5,0.6s0.6,0,0.8-0.2S18,15,18,14.7l-0.6-2.4c0.5-0.2,1-0.6,1.4-1.1l3.6,15.3
			C21.9,27,21.5,27.7,21.2,28.3z M16.3,11c-1,0.2-2.1-0.2-2.7-1.1l0.1-2.8c0.3,0.1,0.6,0.1,0.8,0.1c0.3,0,0.5,0,0.8-0.1
			c0.5-0.1,1-0.4,1.5-0.7l1.3,2.5C18,9.9,17.3,10.7,16.3,11L16.3,11z M14.1,1.6c0.1,0,0.2,0,0.3,0.1l1.7,3.2
			c-0.3,0.3-0.7,0.5-1.1,0.6c-0.4,0.1-0.8,0.1-1.2-0.1l0.1-3.6C13.9,1.7,14,1.6,14.1,1.6z M8.3,17.6l0.6,1.5l-3,1.2
			c-0.4,0.1-0.5,0.5-0.5,0.9c0.1,0.4,0.4,0.6,0.8,0.6c0.1,0,0.2,0,0.3-0.1l3-1.2l0.6,1.5l-1.5,0.6c-0.4,0.1-0.6,0.5-0.5,0.9
			c0.1,0.4,0.4,0.6,0.8,0.6c0.1,0,0.2,0,0.3-0.1l1.5-0.6l0.6,1.5l-3,1.2c-0.4,0.1-0.6,0.5-0.5,0.9c0.1,0.4,0.4,0.6,0.8,0.6
			c0.1,0,0.2,0,0.3-0.1l3-1.2l0.6,1.6c-2.6,1.2-4.5,3.5-5.2,6.3l-5.8-14L8.3,17.6z M41.6,46.4H6.4c-2.7,0-4.8-2.1-4.8-4.8
			s2.1-4.8,4.8-4.8c0.5,0,0.9,0.1,1.4,0.2c0.2,0.1,0.5,0,0.7-0.1c0.2-0.1,0.3-0.4,0.3-0.6c0.1-2.9,1.7-5.4,4.3-6.7s5.6-1,7.9,0.8
			c0.2,0.1,0.5,0.2,0.7,0.1c0.2-0.1,0.4-0.3,0.5-0.5c1.6-4.2,5.9-6.6,10.3-5.8s7.6,4.6,7.6,9.1c0,0.9-0.1,1.8-0.4,2.7
			c-0.1,0.3,0,0.6,0.2,0.8c0.2,0.2,0.5,0.3,0.8,0.2c0.4-0.1,0.7-0.1,1.1-0.1c2.7,0,4.8,2.1,4.8,4.8S44.3,46.4,41.6,46.4z"/>
		<path class="st1" d="M30.9,12.6c0.3,0,0.5-0.1,0.6-0.3c1-1.4,1.4-3.1,1.1-4.7C32.6,7.3,32.4,7,32.1,7c-0.3-0.1-0.6,0-0.8,0.2
			c-0.2,0.2-0.3,0.5-0.2,0.8c0.2,1.2-0.1,2.4-0.8,3.3c-0.2,0.2-0.2,0.6-0.1,0.8C30.4,12.4,30.6,12.6,30.9,12.6L30.9,12.6z"/>
		<path class="st1" d="M29.9,36.8c-0.6,0-1.2,0.1-1.7,0.4c-1.4-2-4.1-2.5-6.2-1.3c-2.1,1.2-3,3.8-2,6.1c0.1,0.3,0.4,0.5,0.7,0.5
			c0.1,0,0.2,0,0.3-0.1c0.2-0.1,0.3-0.2,0.4-0.4s0.1-0.4,0-0.6c-0.2-0.4-0.3-0.8-0.3-1.3c0-1.8,1.4-3.2,3.2-3.2
			c1.2,0,2.4,0.7,2.9,1.8c0,0,0,0.1,0.1,0.1c0,0,0,0.1,0,0.1c0,0,0,0,0.1,0c0,0,0.1,0.1,0.1,0.1c0,0,0.1,0.1,0.1,0.1
			c0,0,0.1,0,0.1,0c0,0,0.1,0,0.2,0c0.1,0,0.2,0,0.3-0.1c0,0,0,0,0.1,0c0,0,0.1,0,0.1-0.1c0,0,0.1,0,0.1,0c0.4-0.3,0.9-0.5,1.5-0.5
			c0.9,0,1.8,0.5,2.2,1.4c0.2,0.4,0.7,0.6,1.1,0.4c0.4-0.2,0.6-0.7,0.4-1.1C32.9,37.7,31.5,36.8,29.9,36.8z"/>
		<path class="st1" d="M14.1,31.2c-0.1,0-2.9,1-2.9,4c0,0.4,0.4,0.8,0.8,0.8s0.8-0.4,0.8-0.8c0.1-1.1,0.8-2.1,1.9-2.4
			c0.4-0.1,0.6-0.6,0.5-1C15,31.3,14.6,31.1,14.1,31.2L14.1,31.2z"/>
		<path class="st1" d="M25.4,30.4c0.1,0,0.1,0,0.2,0c0.4,0,0.7-0.2,0.8-0.6c0.4-1.5,1.7-2.6,3.2-2.6c0.4,0,0.8-0.4,0.8-0.8
			s-0.4-0.8-0.8-0.8c-2.3,0-4.2,1.6-4.8,3.8C24.7,29.8,25,30.3,25.4,30.4z"/>
	</g>
</g>
</svg>
