<?xml version="1.0" encoding="utf-8"?>
<!-- Generator: Adobe Illustrator 26.2.1, SVG Export Plug-In . SVG Version: 6.00 Build 0)  -->
<svg version="1.1" id="Layer_1" xmlns="http://www.w3.org/2000/svg" xmlns:xlink="http://www.w3.org/1999/xlink" x="0px" y="0px"
	 viewBox="0 0 48 48" style="enable-background:new 0 0 48 48;" xml:space="preserve">
<style type="text/css">
	.st0{fill:#0FB9ED;}
</style>
<g>
	<path class="st0" d="M18.9,33.6c-0.2,0-0.4-0.1-0.5-0.2l-5.1-4.4c-0.2-0.2-0.3-0.4-0.3-0.6c0-0.2,0.1-0.5,0.3-0.6l5.1-4.4
		c0.3-0.3,0.8-0.2,1.1,0.1c0.3,0.3,0.2,0.8-0.1,1.1L15,28.5l4.4,3.8c0.3,0.3,0.4,0.8,0.1,1.1C19.4,33.5,19.2,33.6,18.9,33.6z"/>
	<path class="st0" d="M29.1,33.6c-0.2,0-0.4-0.1-0.6-0.3c-0.3-0.3-0.2-0.8,0.1-1.1l4.4-3.8l-4.4-3.8c-0.3-0.3-0.4-0.8-0.1-1.1
		c0.3-0.3,0.8-0.4,1.1-0.1l5.1,4.4c0.2,0.2,0.3,0.4,0.3,0.6c0,0.2-0.1,0.5-0.3,0.6l-5.1,4.4C29.4,33.6,29.2,33.6,29.1,33.6z"/>
	<path class="st0" d="M22.2,36.9c-0.1,0-0.1,0-0.2,0c-0.4-0.1-0.7-0.5-0.6-0.9l3.2-15.2c0.1-0.4,0.5-0.7,0.9-0.6
		c0.4,0.1,0.7,0.5,0.6,0.9L23,36.3C22.9,36.7,22.6,36.9,22.2,36.9z"/>
	<path class="st0" d="M42.7,45.2H5.3c-2.9,0-5.3-2.4-5.3-5.3V8.2c0-2.9,2.4-5.3,5.3-5.3h37.4c2.9,0,5.3,2.4,5.3,5.3v31.7
		C48,42.8,45.6,45.2,42.7,45.2z M5.3,4.4c-2.1,0-3.7,1.7-3.7,3.7v31.7c0,2.1,1.7,3.7,3.7,3.7h37.4c2.1,0,3.7-1.7,3.7-3.7V8.2
		c0-2.1-1.7-3.7-3.7-3.7L5.3,4.4z"/>
	<path class="st0" d="M47.2,15.5H0.8c-0.4,0-0.8-0.4-0.8-0.8c0-0.4,0.4-0.8,0.8-0.8h46.4c0.4,0,0.8,0.4,0.8,0.8
		C48,15.2,47.6,15.5,47.2,15.5z"/>
	<path class="st0" d="M13.5,11.7c-1.4,0-2.5-1.1-2.5-2.5c0-1.4,1.1-2.5,2.5-2.5c1.4,0,2.5,1.1,2.5,2.5C16,10.6,14.9,11.7,13.5,11.7z
		 M13.5,8.3c-0.5,0-0.9,0.4-0.9,0.9s0.4,0.9,0.9,0.9c0.5,0,0.9-0.4,0.9-0.9S14,8.3,13.5,8.3z"/>
	<path class="st0" d="M5.8,11.7c-1.4,0-2.5-1.1-2.5-2.5c0-1.4,1.1-2.5,2.5-2.5s2.5,1.1,2.5,2.5C8.3,10.6,7.2,11.7,5.8,11.7z
		 M5.8,8.3c-0.5,0-0.9,0.4-0.9,0.9c0,0.5,0.4,0.9,0.9,0.9c0.5,0,0.9-0.4,0.9-0.9C6.8,8.7,6.3,8.3,5.8,8.3z"/>
	<path class="st0" d="M21.2,11.8c-1.4,0-2.5-1.1-2.5-2.5c0-1.4,1.1-2.5,2.5-2.5c1.4,0,2.5,1.1,2.5,2.5
		C23.8,10.6,22.6,11.8,21.2,11.8z M21.2,8.3c-0.5,0-0.9,0.4-0.9,0.9s0.4,0.9,0.9,0.9c0.5,0,0.9-0.4,0.9-0.9S21.8,8.3,21.2,8.3z"/>
</g>
</svg>
